<?xml version="1.0" encoding="UTF-8" standalone="no"?>
<svg
   xmlns:dc="http://purl.org/dc/elements/1.1/"
   xmlns:cc="http://creativecommons.org/ns#"
   xmlns:rdf="http://www.w3.org/1999/02/22-rdf-syntax-ns#"
   xmlns:svg="http://www.w3.org/2000/svg"
   xmlns="http://www.w3.org/2000/svg"
   xmlns:sodipodi="http://sodipodi.sourceforge.net/DTD/sodipodi-0.dtd"
   xmlns:inkscape="http://www.inkscape.org/namespaces/inkscape"
   width="210mm"
   height="297mm"
   viewBox="0 0 210 297"
   version="1.1"
   id="svg888"
   inkscape:version="1.0.2 (e86c8708, 2021-01-15)"
   sodipodi:docname="stages.svg">
  <defs
     id="defs882" />
  <sodipodi:namedview
     id="base"
     pagecolor="#ffffff"
     bordercolor="#666666"
     borderopacity="1.0"
     inkscape:pageopacity="0.0"
     inkscape:pageshadow="2"
     inkscape:zoom="0.70911897"
     inkscape:cx="396.85039"
     inkscape:cy="504.85182"
     inkscape:document-units="mm"
     inkscape:current-layer="layer1"
     inkscape:document-rotation="0"
     showgrid="false"
     inkscape:window-width="1792"
     inkscape:window-height="1004"
     inkscape:window-x="0"
     inkscape:window-y="25"
     inkscape:window-maximized="1" />
  <metadata
     id="metadata885">
    <rdf:RDF>
      <cc:Work
         rdf:about="">
        <dc:format>image/svg+xml</dc:format>
        <dc:type
           rdf:resource="http://purl.org/dc/dcmitype/StillImage" />
        <dc:title />
      </cc:Work>
    </rdf:RDF>
  </metadata>
  <g
     inkscape:label="Layer 1"
     inkscape:groupmode="layer"
     id="layer1">
    <rect
       style="fill:#000000;stroke-width:0.776545"
       id="rect2122"
       width="140"
       height="70"
       x="20.521355"
       y="11.566583" />
    <rect
       style="fill:#ffffff;stroke-width:0.526916"
       id="rect2124"
       width="100"
       height="30"
       x="40.521355"
       y="31.566582"
       inkscape:export-xdpi="300"
       inkscape:export-ydpi="300" />
    <g
       id="g1156"
       transform="translate(8.5816587,36.427149)">
      <path
         d="m 33.643608,243.63662 v -1.7145 h 3.439572 v -1.3335 h -3.439572 v -1.60866 h 3.894654 v -1.37583 h -5.598566 v 7.40831 h 5.736149 v -1.37582 z"
         style="font-style:normal;font-variant:normal;font-weight:bold;font-stretch:normal;font-size:10.5833px;line-height:1.25;font-family:Montserrat;-inkscape-font-specification:'Montserrat Bold';fill:#000000;fill-opacity:1;stroke:none;stroke-width:0.264583"
         id="path1648" />
      <path
         d="m 44.151501,237.60413 v 4.49791 l -3.682988,-4.49791 h -1.418162 v 7.40831 h 1.693328 v -4.4979 l 3.693571,4.4979 h 1.407579 v -7.40831 z"
         style="font-style:normal;font-variant:normal;font-weight:bold;font-stretch:normal;font-size:10.5833px;line-height:1.25;font-family:Montserrat;-inkscape-font-specification:'Montserrat Bold';fill:#000000;fill-opacity:1;stroke:none;stroke-width:0.264583"
         id="path1650" />
      <path
         d="m 47.60794,245.01244 h 3.365489 c 2.423576,0 4.085154,-1.46049 4.085154,-3.70415 0,-2.24366 -1.661578,-3.70416 -4.085154,-3.70416 H 47.60794 Z m 1.714494,-1.40757 v -4.59316 h 1.566329 c 1.471078,0 2.434159,0.87842 2.434159,2.29658 0,1.41816 -0.963081,2.29658 -2.434159,2.29658 z"
         style="font-style:normal;font-variant:normal;font-weight:bold;font-stretch:normal;font-size:10.5833px;line-height:1.25;font-family:Montserrat;-inkscape-font-specification:'Montserrat Bold';fill:#000000;fill-opacity:1;stroke:none;stroke-width:0.264583"
         id="path1652" />
      <path
         d="m 61.357466,243.36145 c -0.433915,0.23283 -0.86783,0.3175 -1.333496,0.3175 -1.418162,0 -2.402409,-0.98425 -2.402409,-2.37066 0,-1.40758 0.984247,-2.37066 2.423576,-2.37066 0.751414,0 1.375829,0.26458 1.915577,0.83608 l 1.100663,-1.016 c -0.719664,-0.83608 -1.799161,-1.28058 -3.100906,-1.28058 -2.360076,0 -4.074571,1.59808 -4.074571,3.83116 0,2.23308 1.714495,3.83115 4.042821,3.83115 1.05833,0 2.180159,-0.32808 2.995074,-0.94191 v -3.00566 h -1.566329 z"
         style="font-style:normal;font-variant:normal;font-weight:bold;font-stretch:normal;font-size:10.5833px;line-height:1.25;font-family:Montserrat;-inkscape-font-specification:'Montserrat Bold';fill:#000000;fill-opacity:1;stroke:none;stroke-width:0.264583"
         id="path1654" />
      <path
         d="m 70.051479,245.01244 h 1.799161 l -3.312572,-7.40831 H 66.84474 l -3.30199,7.40831 h 1.756828 l 0.656165,-1.58749 h 3.439572 z m -3.545405,-2.88924 1.174746,-2.83632 1.174747,2.83632 z"
         style="font-style:normal;font-variant:normal;font-weight:bold;font-stretch:normal;font-size:10.5833px;line-height:1.25;font-family:Montserrat;-inkscape-font-specification:'Montserrat Bold';fill:#000000;fill-opacity:1;stroke:none;stroke-width:0.264583"
         id="path1656" />
      <path
         d="m 80.969478,245.01244 -0.02117,-7.40831 h -1.407579 l -2.730491,4.60374 -2.772825,-4.60374 h -1.418162 v 7.40831 h 1.608662 v -4.34973 l 2.169576,3.56657 h 0.772581 l 2.18016,-3.66182 0.01058,4.44498 z"
         style="font-style:normal;font-variant:normal;font-weight:bold;font-stretch:normal;font-size:10.5833px;line-height:1.25;font-family:Montserrat;-inkscape-font-specification:'Montserrat Bold';fill:#000000;fill-opacity:1;stroke:none;stroke-width:0.264583"
         id="path1658" />
      <path
         d="m 84.431041,243.63662 v -1.7145 h 3.439573 v -1.3335 h -3.439573 v -1.60866 h 3.894655 v -1.37583 H 82.72713 v 7.40831 h 5.736148 v -1.37582 z"
         style="font-style:normal;font-variant:normal;font-weight:bold;font-stretch:normal;font-size:10.5833px;line-height:1.25;font-family:Montserrat;-inkscape-font-specification:'Montserrat Bold';fill:#000000;fill-opacity:1;stroke:none;stroke-width:0.264583"
         id="path1660" />
    </g>
    <g
       id="g1106"
       transform="translate(8.2085427,1.1243794)">
      <path
         d="m 32.312814,160.31537 h 3.36549 c 2.423575,0 4.085153,-1.4605 4.085153,-3.70416 0,-2.24366 -1.661578,-3.70415 -4.085153,-3.70415 h -3.36549 z m 1.714495,-1.40758 v -4.59315 h 1.566328 c 1.471079,0 2.434159,0.87841 2.434159,2.29657 0,1.41817 -0.96308,2.29658 -2.434159,2.29658 z"
         style="font-style:normal;font-variant:normal;font-weight:bold;font-stretch:normal;font-size:10.5833px;line-height:1.25;font-family:Montserrat;-inkscape-font-specification:'Montserrat Bold';fill:#000000;fill-opacity:1;stroke:none;stroke-width:0.264583"
         id="path1587" />
      <path
         d="m 42.76035,158.93954 v -1.7145 h 3.439573 v -1.33349 H 42.76035 v -1.60866 h 3.894655 v -1.37583 h -5.598566 v 7.40831 h 5.736148 v -1.37583 z"
         style="font-style:normal;font-variant:normal;font-weight:bold;font-stretch:normal;font-size:10.5833px;line-height:1.25;font-family:Montserrat;-inkscape-font-specification:'Montserrat Bold';fill:#000000;fill-opacity:1;stroke:none;stroke-width:0.264583"
         id="path1589" />
      <path
         d="m 53.482391,152.90706 -2.285993,5.29165 -2.254243,-5.29165 h -1.852077 l 3.196156,7.40831 h 1.693328 l 3.20674,-7.40831 z"
         style="font-style:normal;font-variant:normal;font-weight:bold;font-stretch:normal;font-size:10.5833px;line-height:1.25;font-family:Montserrat;-inkscape-font-specification:'Montserrat Bold';fill:#000000;fill-opacity:1;stroke:none;stroke-width:0.264583"
         id="path1591" />
      <path
         d="m 57.498423,158.93954 v -1.7145 h 3.439572 v -1.33349 h -3.439572 v -1.60866 h 3.894654 v -1.37583 h -5.598566 v 7.40831 h 5.736149 v -1.37583 z"
         style="font-style:normal;font-variant:normal;font-weight:bold;font-stretch:normal;font-size:10.5833px;line-height:1.25;font-family:Montserrat;-inkscape-font-specification:'Montserrat Bold';fill:#000000;fill-opacity:1;stroke:none;stroke-width:0.264583"
         id="path1593" />
      <path
         d="m 62.905164,160.31537 h 5.429233 v -1.397 h -3.714738 v -6.01131 h -1.714495 z"
         style="font-style:normal;font-variant:normal;font-weight:bold;font-stretch:normal;font-size:10.5833px;line-height:1.25;font-family:Montserrat;-inkscape-font-specification:'Montserrat Bold';fill:#000000;fill-opacity:1;stroke:none;stroke-width:0.264583"
         id="path1595" />
      <path
         d="m 81.304726,152.90706 h -3.20674 v 7.40831 h 1.714494 v -2.04258 h 1.492246 c 1.979077,0 3.217323,-1.02658 3.217323,-2.67757 0,-1.66158 -1.238246,-2.68816 -3.217323,-2.68816 z m -0.09525,3.96874 H 79.81248 v -2.57175 h 1.396996 c 1.047747,0 1.576912,0.47625 1.576912,1.29117 0,0.80433 -0.529165,1.28058 -1.576912,1.28058 z"
         style="font-style:normal;font-variant:normal;font-weight:bold;font-stretch:normal;font-size:10.5833px;line-height:1.25;font-family:Montserrat;-inkscape-font-specification:'Montserrat Bold';fill:#000000;fill-opacity:1;stroke:none;stroke-width:0.264583"
         id="path1599" />
      <path
         d="m 94.0963,160.31537 -0.02117,-7.40831 h -1.407579 l -2.730491,4.60373 -2.772825,-4.60373 h -1.418162 v 7.40831 h 1.608662 v -4.34974 l 2.169576,3.56657 h 0.772581 l 2.18016,-3.66182 0.01058,4.44499 z"
         style="font-style:normal;font-variant:normal;font-weight:bold;font-stretch:normal;font-size:10.5833px;line-height:1.25;font-family:Montserrat;-inkscape-font-specification:'Montserrat Bold';fill:#000000;fill-opacity:1;stroke:none;stroke-width:0.264583"
         id="path1601" />
      <path
         d="m 97.557863,158.93954 v -1.7145 h 3.439567 v -1.33349 h -3.439567 v -1.60866 h 3.894647 v -1.37583 h -5.598558 v 7.40831 h 5.736148 v -1.37583 z"
         style="font-style:normal;font-variant:normal;font-weight:bold;font-stretch:normal;font-size:10.5833px;line-height:1.25;font-family:Montserrat;-inkscape-font-specification:'Montserrat Bold';fill:#000000;fill-opacity:1;stroke:none;stroke-width:0.264583"
         id="path1603" />
      <path
         d="m 108.06575,152.90706 v 4.4979 l -3.68298,-4.4979 h -1.41817 v 7.40831 h 1.69333 v -4.4979 l 3.69357,4.4979 h 1.40758 v -7.40831 z"
         style="font-style:normal;font-variant:normal;font-weight:bold;font-stretch:normal;font-size:10.5833px;line-height:1.25;font-family:Montserrat;-inkscape-font-specification:'Montserrat Bold';fill:#000000;fill-opacity:1;stroke:none;stroke-width:0.264583"
         id="path1605" />
      <path
         d="m 113.05677,160.31537 h 1.71449 v -6.01132 h 2.37066 v -1.39699 h -6.45581 v 1.39699 h 2.37066 z"
         style="font-style:normal;font-variant:normal;font-weight:bold;font-stretch:normal;font-size:10.5833px;line-height:1.25;font-family:Montserrat;-inkscape-font-specification:'Montserrat Bold';fill:#000000;fill-opacity:1;stroke:none;stroke-width:0.264583"
         id="path1607" />
      <path
         id="path1749"
         style="font-style:normal;font-variant:normal;font-weight:bold;font-stretch:normal;font-size:11.2889px;line-height:1.25;font-family:Montserrat;-inkscape-font-specification:'Montserrat Bold';fill:#000000;fill-opacity:1;stroke:none;stroke-width:0.248036"
         d="m 72.756073,152.78022 c -2.33882,0 -4.05336,1.62976 -4.05336,3.831 0,2.20124 1.71454,3.83099 4.05336,3.83099 2.32823,0 4.05335,-1.61917 4.05335,-3.83099 0,-2.21183 -1.725121,-3.831 -4.05335,-3.831 z m 0,1.4606 c 1.32286,0 2.31758,0.96287 2.31758,2.3704 0,1.40751 -0.99473,2.37039 -2.31758,2.37039 -1.32287,0 -2.31759,-0.96288 -2.31759,-2.37039 0,-1.40753 0.99473,-2.3704 2.31759,-2.3704 z m -0.0126,1.43299 a 0.93746034,0.93746034 0 0 0 -0.92481,0.93741 0.93746034,0.93746034 0 0 0 0.93741,0.9374 0.93746034,0.93746034 0 0 0 0.9374,-0.9374 0.93746034,0.93746034 0 0 0 -0.9374,-0.93741 0.93746034,0.93746034 0 0 0 -0.0126,0 z" />
      <path
         d="m 33.932062,150.26123 c 1.09855,0 1.6002,-0.5461 1.6002,-1.17475 0,-1.6129 -2.77495,-0.8255 -2.77495,-2.159 0,-0.48895 0.38735,-0.889 1.25095,-0.889 0.40005,0 0.8509,0.12065 1.2192,0.37465 l 0.12065,-0.26035 c -0.3429,-0.24765 -0.8509,-0.40005 -1.33985,-0.40005 -1.0922,0 -1.5748,0.55245 -1.5748,1.1811 0,1.6383 2.77495,0.8382 2.77495,2.1717 0,0.4826 -0.3937,0.86995 -1.2827,0.86995 -0.5969,0 -1.16205,-0.2413 -1.46685,-0.5588 l -0.14605,0.2413 c 0.32385,0.3556 0.95885,0.60325 1.61925,0.60325 z"
         style="font-style:normal;font-variant:normal;font-weight:300;font-stretch:normal;font-size:6.35px;line-height:1.25;font-family:Montserrat;-inkscape-font-specification:'Montserrat Light';fill:#000000;fill-opacity:1;stroke:none;stroke-width:0.264583"
         id="path1899" />
      <path
         d="m 37.422082,150.22948 h 0.32385 v -4.1529 h 1.6002 v -0.2921 h -3.52425 v 0.2921 h 1.6002 z"
         style="font-style:normal;font-variant:normal;font-weight:300;font-stretch:normal;font-size:6.35px;line-height:1.25;font-family:Montserrat;-inkscape-font-specification:'Montserrat Light';fill:#000000;fill-opacity:1;stroke:none;stroke-width:0.264583"
         id="path1901" />
      <path
         d="m 43.240864,150.22948 h 0.34925 l -2.0447,-4.445 h -0.32385 l -2.0447,4.445 h 0.34925 l 0.56515,-1.25095 h 2.5781 z m -3.0226,-1.524 1.16205,-2.5654 1.1684,2.5654 z"
         style="font-style:normal;font-variant:normal;font-weight:300;font-stretch:normal;font-size:6.35px;line-height:1.25;font-family:Montserrat;-inkscape-font-specification:'Montserrat Light';fill:#000000;fill-opacity:1;stroke:none;stroke-width:0.264583"
         id="path1903" />
      <path
         d="m 47.510048,149.55638 c -0.36195,0.2921 -0.79375,0.4064 -1.26365,0.4064 -1.1557,0 -2.01295,-0.84455 -2.01295,-1.9558 0,-1.1176 0.85725,-1.9558 2.01295,-1.9558 0.53975,0 1.0033,0.14605 1.39065,0.52705 l 0.2032,-0.2159 c -0.3937,-0.4064 -0.95885,-0.6096 -1.6002,-0.6096 -1.3462,0 -2.33045,0.95885 -2.33045,2.25425 0,1.2954 0.98425,2.25425 2.3241,2.25425 0.6096,0 1.18745,-0.1905 1.5875,-0.5715 v -1.6637 h -0.31115 z"
         style="font-style:normal;font-variant:normal;font-weight:300;font-stretch:normal;font-size:6.35px;line-height:1.25;font-family:Montserrat;-inkscape-font-specification:'Montserrat Light';fill:#000000;fill-opacity:1;stroke:none;stroke-width:0.264583"
         id="path1905" />
      <path
         d="m 49.570226,149.93738 v -1.82245 h 2.36855 v -0.28575 h -2.36855 v -1.7526 h 2.64795 v -0.2921 h -2.9718 v 4.445 h 3.06705 v -0.2921 z"
         style="font-style:normal;font-variant:normal;font-weight:300;font-stretch:normal;font-size:6.35px;line-height:1.25;font-family:Montserrat;-inkscape-font-specification:'Montserrat Light';fill:#000000;fill-opacity:1;stroke:none;stroke-width:0.264583"
         id="path1907" />
      <circle
         style="fill:#000000;stroke-width:0.460253"
         id="circle1842"
         cx="56.959259"
         cy="148.00697"
         r="2" />
      <path
         id="path1844"
         style="fill:#000000;stroke-width:0.460253"
         d="m 65.996038,146.00711 a 2,2 0 0 0 -1.978173,1.99988 2,2 0 0 0 1.999877,1.99988 2,2 0 0 0 2.000395,-1.99988 2,2 0 0 0 -2.000395,-1.99988 2,2 0 0 0 -0.0217,0 z m 0.0217,0.49971 a 1.5,1.5 0 0 1 1.500169,1.50017 1.5,1.5 0 0 1 -1.500169,1.50017 1.5,1.5 0 0 1 -1.49965,-1.50017 1.5,1.5 0 0 1 1.49965,-1.50017 z" />
      <path
         id="path1846"
         style="fill:#000000;stroke-width:0.460253"
         d="m 61.466599,146.00686 a 2,2 0 0 0 -1.978173,1.99988 2,2 0 0 0 2.000396,2.00039 2,2 0 0 0 1.999876,-2.00039 2,2 0 0 0 -1.999876,-1.99988 2,2 0 0 0 -0.02222,0 z m 0.02222,1.50016 a 0.5,0.5 0 0 1 0.499711,0.49972 0.5,0.5 0 0 1 -0.499711,0.50022 0.5,0.5 0 0 1 -0.500229,-0.50022 0.5,0.5 0 0 1 0.500229,-0.49972 z" />
      <path
         id="path1848"
         style="fill:#000000;stroke-width:0.460253"
         d="m 70.525477,146.00711 a 2,2 0 0 0 -1.978173,1.99988 2,2 0 0 0 1.999877,1.99988 2,2 0 0 0 2.000395,-1.99988 2,2 0 0 0 -2.000395,-1.99988 2,2 0 0 0 -0.0217,0 z m 0.0217,0.49971 a 1.5,1.5 0 0 1 1.500169,1.50017 1.5,1.5 0 0 1 -1.500169,1.50017 1.5,1.5 0 0 1 -1.49965,-1.50017 1.5,1.5 0 0 1 1.49965,-1.50017 z" />
    </g>
    <g
       id="g1125"
       transform="translate(9.3278897,10.155779)">
      <path
         id="path1610"
         style="font-style:normal;font-variant:normal;font-weight:bold;font-stretch:normal;font-size:10.5833px;line-height:1.25;font-family:Montserrat;-inkscape-font-specification:'Montserrat Bold';fill:#000000;fill-opacity:1;stroke:none;stroke-width:0.264583"
         d="m 35.214927,183.74822 c -2.307159,0 -4.02146,1.59821 -4.02146,3.8313 0,2.23307 1.714547,3.83129 4.011123,3.83129 1.291164,0 2.359715,-0.46567 3.058212,-1.32292 l -1.100193,-1.01596 c -0.497414,0.58208 -1.122103,0.87798 -1.862934,0.87798 -1.386414,0 -2.370399,-0.97341 -2.370399,-2.37039 0,-1.397 0.983985,-2.37092 2.370399,-2.37092 0.740831,0 1.36552,0.29666 1.862934,0.86816 l 1.100193,-1.01595 c -0.698497,-0.84666 -1.767297,-1.31259 -3.047875,-1.31259 z m 0.01913,2.89388 a 0.93746033,0.93746033 0 0 0 -0.924491,0.93742 0.93746033,0.93746033 0 0 0 0.937411,0.93741 0.93746033,0.93746033 0 0 0 0.937411,-0.93741 0.93746033,0.93746033 0 0 0 -0.937411,-0.93742 0.93746033,0.93746033 0 0 0 -0.01291,0 z" />
      <path
         d="m 53.275934,183.87532 v 4.4979 l -3.682989,-4.4979 h -1.418162 v 7.40831 h 1.693328 v -4.4979 l 3.693572,4.4979 h 1.407578 v -7.40831 z"
         style="font-style:normal;font-variant:normal;font-weight:bold;font-stretch:normal;font-size:10.5833px;line-height:1.25;font-family:Montserrat;-inkscape-font-specification:'Montserrat Bold';fill:#000000;fill-opacity:1;stroke:none;stroke-width:0.264583"
         id="path1614" />
      <path
         d="m 58.26695,191.28363 h 1.714495 v -6.01131 h 2.370659 v -1.397 h -6.455813 v 1.397 h 2.370659 z"
         style="font-style:normal;font-variant:normal;font-weight:bold;font-stretch:normal;font-size:10.5833px;line-height:1.25;font-family:Montserrat;-inkscape-font-specification:'Montserrat Bold';fill:#000000;fill-opacity:1;stroke:none;stroke-width:0.264583"
         id="path1616" />
      <path
         d="m 76.571429,191.28363 h 1.799161 l -3.312573,-7.40831 h -1.693328 l -3.30199,7.40831 h 1.756828 l 0.656165,-1.58749 h 3.439572 z m -3.545406,-2.88924 1.174747,-2.83632 1.174746,2.83632 z"
         style="font-style:normal;font-variant:normal;font-weight:bold;font-stretch:normal;font-size:10.5833px;line-height:1.25;font-family:Montserrat;-inkscape-font-specification:'Montserrat Bold';fill:#000000;fill-opacity:1;stroke:none;stroke-width:0.264583"
         id="path1620" />
      <path
         d="m 81.573362,191.41063 c 2.11666,0 3.14324,-1.05833 3.14324,-2.29657 0,-2.71991 -4.307403,-1.778 -4.307403,-3.14324 0,-0.46567 0.391582,-0.84667 1.407579,-0.84667 0.656165,0 1.365246,0.1905 2.05316,0.58208 l 0.529165,-1.30174 c -0.687914,-0.43392 -1.640411,-0.65617 -2.571741,-0.65617 -2.106077,0 -3.122074,1.04775 -3.122074,2.30716 0,2.75166 4.307403,1.79916 4.307403,3.18557 0,0.45509 -0.412749,0.79375 -1.428745,0.79375 -0.888998,0 -1.820328,-0.3175 -2.444743,-0.77258 l -0.582081,1.29116 c 0.656165,0.508 1.841494,0.85725 3.01624,0.85725 z"
         style="font-style:normal;font-variant:normal;font-weight:bold;font-stretch:normal;font-size:10.5833px;line-height:1.25;font-family:Montserrat;-inkscape-font-specification:'Montserrat Bold';fill:#000000;fill-opacity:1;stroke:none;stroke-width:0.264583"
         id="path1622" />
      <path
         d="m 87.329685,191.28363 h 1.714494 v -6.01131 h 2.370659 v -1.397 h -6.455812 v 1.397 h 2.370659 z"
         style="font-style:normal;font-variant:normal;font-weight:bold;font-stretch:normal;font-size:10.5833px;line-height:1.25;font-family:Montserrat;-inkscape-font-specification:'Montserrat Bold';fill:#000000;fill-opacity:1;stroke:none;stroke-width:0.264583"
         id="path1624" />
      <path
         id="path1713"
         style="font-style:normal;font-variant:normal;font-weight:bold;font-stretch:normal;font-size:11.2889px;line-height:1.25;font-family:Montserrat;-inkscape-font-specification:'Montserrat Bold';fill:#000000;fill-opacity:1;stroke:none;stroke-width:0.248036"
         d="m 63.264451,183.87542 2.53511,3.97924 h -0.10223 -0.71843 -1.71445 v 3.42891 h 1.71445 v -2.06375 h 1.49209 0.0847 l 0.10125,-0.0199 1.32738,2.0836 h 1.84138 l -1.55023,-2.4329 c 0.8941,-0.42681 1.41265,-1.21984 1.41265,-2.28705 0,-1.66151 -1.2382,-2.68819 -3.21721,-2.68819 h -1.36518 z m 2.7313,1.39715 h 0.38029 c 1.04771,0 1.57688,0.47617 1.57688,1.29104 0,0.44618 -0.16348,0.79404 -0.48736,1.01589 z" />
      <path
         id="path1751"
         style="font-style:normal;font-variant:normal;font-weight:bold;font-stretch:normal;font-size:11.2889px;line-height:1.25;font-family:Montserrat;-inkscape-font-specification:'Montserrat Bold';fill:#000000;fill-opacity:1;stroke:none;stroke-width:0.248036"
         d="m 42.832867,183.74848 c -2.33882,0 -4.05336,1.62976 -4.05336,3.831 0,2.20124 1.71454,3.83099 4.05336,3.83099 2.32823,0 4.05335,-1.61917 4.05335,-3.83099 0,-2.21183 -1.725121,-3.831 -4.05335,-3.831 z m 0,1.4606 c 1.322861,0 2.317581,0.96287 2.317581,2.3704 0,1.40751 -0.994731,2.37039 -2.317581,2.37039 -1.322869,0 -2.31759,-0.96288 -2.31759,-2.37039 0,-1.40753 0.994731,-2.3704 2.31759,-2.3704 z m -0.0126,1.43299 a 0.93746034,0.93746034 0 0 0 -0.92481,0.93741 0.93746034,0.93746034 0 0 0 0.93741,0.9374 0.93746034,0.93746034 0 0 0 0.9374,-0.9374 0.93746034,0.93746034 0 0 0 -0.9374,-0.93741 0.93746034,0.93746034 0 0 0 -0.0126,0 z" />
      <path
         d="m 32.812715,181.10243 c 1.09855,0 1.6002,-0.5461 1.6002,-1.17475 0,-1.6129 -2.77495,-0.8255 -2.77495,-2.159 0,-0.48895 0.38735,-0.889 1.25095,-0.889 0.40005,0 0.8509,0.12065 1.2192,0.37465 l 0.12065,-0.26035 c -0.3429,-0.24765 -0.8509,-0.40005 -1.33985,-0.40005 -1.0922,0 -1.5748,0.55245 -1.5748,1.1811 0,1.6383 2.77495,0.8382 2.77495,2.1717 0,0.4826 -0.3937,0.86995 -1.2827,0.86995 -0.5969,0 -1.16205,-0.2413 -1.46685,-0.5588 l -0.14605,0.2413 c 0.32385,0.3556 0.95885,0.60325 1.61925,0.60325 z"
         style="font-style:normal;font-variant:normal;font-weight:300;font-stretch:normal;font-size:6.35px;line-height:1.25;font-family:Montserrat;-inkscape-font-specification:'Montserrat Light';fill:#000000;fill-opacity:1;stroke:none;stroke-width:0.264583"
         id="path1910" />
      <path
         d="m 36.302735,181.07068 h 0.32385 v -4.1529 h 1.6002 v -0.2921 h -3.52425 v 0.2921 h 1.6002 z"
         style="font-style:normal;font-variant:normal;font-weight:300;font-stretch:normal;font-size:6.35px;line-height:1.25;font-family:Montserrat;-inkscape-font-specification:'Montserrat Light';fill:#000000;fill-opacity:1;stroke:none;stroke-width:0.264583"
         id="path1912" />
      <path
         d="m 42.121517,181.07068 h 0.34925 l -2.0447,-4.445 h -0.32385 l -2.0447,4.445 h 0.34925 l 0.56515,-1.25095 h 2.5781 z m -3.0226,-1.524 1.16205,-2.5654 1.1684,2.5654 z"
         style="font-style:normal;font-variant:normal;font-weight:300;font-stretch:normal;font-size:6.35px;line-height:1.25;font-family:Montserrat;-inkscape-font-specification:'Montserrat Light';fill:#000000;fill-opacity:1;stroke:none;stroke-width:0.264583"
         id="path1914" />
      <path
         d="m 46.390702,180.39758 c -0.36195,0.2921 -0.79375,0.4064 -1.26365,0.4064 -1.1557,0 -2.01295,-0.84455 -2.01295,-1.9558 0,-1.1176 0.85725,-1.9558 2.01295,-1.9558 0.53975,0 1.0033,0.14605 1.39065,0.52705 l 0.2032,-0.2159 c -0.3937,-0.4064 -0.95885,-0.6096 -1.6002,-0.6096 -1.3462,0 -2.33045,0.95885 -2.33045,2.25425 0,1.2954 0.98425,2.25425 2.3241,2.25425 0.6096,0 1.18745,-0.1905 1.5875,-0.5715 v -1.6637 h -0.31115 z"
         style="font-style:normal;font-variant:normal;font-weight:300;font-stretch:normal;font-size:6.35px;line-height:1.25;font-family:Montserrat;-inkscape-font-specification:'Montserrat Light';fill:#000000;fill-opacity:1;stroke:none;stroke-width:0.264583"
         id="path1916" />
      <path
         d="m 48.450879,180.77858 v -1.82245 h 2.36855 v -0.28575 h -2.36855 v -1.7526 h 2.64795 v -0.2921 h -2.9718 v 4.445 h 3.06705 v -0.2921 z"
         style="font-style:normal;font-variant:normal;font-weight:300;font-stretch:normal;font-size:6.35px;line-height:1.25;font-family:Montserrat;-inkscape-font-specification:'Montserrat Light';fill:#000000;fill-opacity:1;stroke:none;stroke-width:0.264583"
         id="path1918" />
      <path
         id="path1980"
         style="fill:#000000;stroke-width:0.460253"
         d="m 64.876691,176.84806 a 2,2 0 0 0 -1.978173,1.99988 2,2 0 0 0 2.000396,2.00039 2,2 0 0 0 1.999876,-2.00039 2,2 0 0 0 -1.999876,-1.99988 2,2 0 0 0 -0.02222,0 z m 0.02222,1.50017 a 0.5,0.5 0 0 1 0.499711,0.49971 0.5,0.5 0 0 1 -0.499711,0.50023 0.5,0.5 0 0 1 -0.500229,-0.50023 0.5,0.5 0 0 1 0.500229,-0.49971 z" />
      <path
         id="path1982"
         style="fill:#000000;stroke-width:0.460253"
         d="m 69.40613,176.84832 a 2,2 0 0 0 -1.978173,1.99987 2,2 0 0 0 1.999877,1.99988 2,2 0 0 0 2.000395,-1.99988 2,2 0 0 0 -2.000395,-1.99987 2,2 0 0 0 -0.0217,0 z m 0.0217,0.49971 a 1.5,1.5 0 0 1 1.500169,1.50016 1.5,1.5 0 0 1 -1.500169,1.50017 1.5,1.5 0 0 1 -1.49965,-1.50017 1.5,1.5 0 0 1 1.49965,-1.50016 z" />
      <circle
         style="fill:#000000;stroke-width:0.460253"
         id="circle1984"
         cx="55.839912"
         cy="178.84818"
         r="2" />
      <circle
         style="fill:#000000;stroke-width:0.460253"
         id="circle1986"
         cx="60.369213"
         cy="178.84818"
         r="2" />
    </g>
    <g
       id="g1147"
       transform="translate(6.7160804,20.306539)">
      <path
         d="m 43.281099,219.75722 v -1.7145 h 3.439572 v -1.33349 h -3.439572 v -1.60866 h 3.894654 v -1.37583 h -5.598565 v 7.40831 h 5.736148 v -1.37583 z"
         style="font-style:normal;font-variant:normal;font-weight:bold;font-stretch:normal;font-size:10.5833px;line-height:1.25;font-family:Montserrat;-inkscape-font-specification:'Montserrat Bold';fill:#000000;fill-opacity:1;stroke:none;stroke-width:0.264583"
         id="path1629" />
      <path
         d="m 51.122001,221.26005 c 2.11666,0 3.14324,-1.05833 3.14324,-2.29658 0,-2.71991 -4.307403,-1.77799 -4.307403,-3.14324 0,-0.46566 0.391582,-0.84666 1.407579,-0.84666 0.656165,0 1.365246,0.1905 2.05316,0.58208 l 0.529165,-1.30175 c -0.687914,-0.43391 -1.640411,-0.65616 -2.571742,-0.65616 -2.106076,0 -3.122073,1.04774 -3.122073,2.30716 0,2.75165 4.307403,1.79916 4.307403,3.18557 0,0.45508 -0.412749,0.79375 -1.428746,0.79375 -0.888997,0 -1.820327,-0.3175 -2.444742,-0.77258 l -0.582081,1.29116 c 0.656164,0.508 1.841494,0.85725 3.01624,0.85725 z"
         style="font-style:normal;font-variant:normal;font-weight:bold;font-stretch:normal;font-size:10.5833px;line-height:1.25;font-family:Montserrat;-inkscape-font-specification:'Montserrat Bold';fill:#000000;fill-opacity:1;stroke:none;stroke-width:0.264583"
         id="path1631" />
      <path
         d="m 64.376757,221.13305 h 5.429233 v -1.397 h -3.714738 v -6.01131 h -1.714495 z"
         style="font-style:normal;font-variant:normal;font-weight:bold;font-stretch:normal;font-size:10.5833px;line-height:1.25;font-family:Montserrat;-inkscape-font-specification:'Montserrat Bold';fill:#000000;fill-opacity:1;stroke:none;stroke-width:0.264583"
         id="path1635" />
      <path
         d="m 73.951998,221.26005 c 2.106077,0 3.354906,-1.2065 3.354906,-3.38666 v -4.14865 h -1.693328 v 4.08515 c 0,1.40758 -0.603248,1.98966 -1.650995,1.98966 -1.037163,0 -1.650994,-0.58208 -1.650994,-1.98966 v -4.08515 h -1.714495 v 4.14865 c 0,2.18016 1.248829,3.38666 3.354906,3.38666 z"
         style="font-style:normal;font-variant:normal;font-weight:bold;font-stretch:normal;font-size:10.5833px;line-height:1.25;font-family:Montserrat;-inkscape-font-specification:'Montserrat Bold';fill:#000000;fill-opacity:1;stroke:none;stroke-width:0.264583"
         id="path1637" />
      <path
         d="m 80.401362,221.13305 h 1.714495 v -6.01132 h 2.370659 v -1.39699 h -6.455813 v 1.39699 h 2.370659 z"
         style="font-style:normal;font-variant:normal;font-weight:bold;font-stretch:normal;font-size:10.5833px;line-height:1.25;font-family:Montserrat;-inkscape-font-specification:'Montserrat Bold';fill:#000000;fill-opacity:1;stroke:none;stroke-width:0.264583"
         id="path1639" />
      <path
         d="m 85.398663,221.13305 h 1.714495 v -7.40831 h -1.714495 z"
         style="font-style:normal;font-variant:normal;font-weight:bold;font-stretch:normal;font-size:10.5833px;line-height:1.25;font-family:Montserrat;-inkscape-font-specification:'Montserrat Bold';fill:#000000;fill-opacity:1;stroke:none;stroke-width:0.264583"
         id="path1641" />
      <path
         d="m 102.90212,213.72474 v 4.4979 l -3.682992,-4.4979 h -1.418163 v 7.40831 h 1.693333 v -4.49791 l 3.693572,4.49791 h 1.40758 v -7.40831 z"
         style="font-style:normal;font-variant:normal;font-weight:bold;font-stretch:normal;font-size:10.5833px;line-height:1.25;font-family:Montserrat;-inkscape-font-specification:'Montserrat Bold';fill:#000000;fill-opacity:1;stroke:none;stroke-width:0.264583"
         id="path1645" />
      <path
         id="path1715"
         style="font-style:normal;font-variant:normal;font-weight:bold;font-stretch:normal;font-size:11.2889px;line-height:1.25;font-family:Montserrat;-inkscape-font-specification:'Montserrat Bold';fill:#000000;fill-opacity:1;stroke:none;stroke-width:0.248036"
         d="m 33.805275,213.72484 2.53511,3.97924 h -0.10223 -0.71843 -1.71445 v 3.42891 h 1.71445 v -2.06375 h 1.49209 0.0847 l 0.10125,-0.0199 1.32738,2.0836 h 1.84138 l -1.55023,-2.4329 c 0.8941,-0.42681 1.41265,-1.21984 1.41265,-2.28705 0,-1.66151 -1.2382,-2.68819 -3.21721,-2.68819 h -1.36518 z m 2.7313,1.39715 h 0.38029 c 1.04771,0 1.57688,0.47617 1.57688,1.29104 0,0.44618 -0.16348,0.79404 -0.48736,1.01589 z" />
      <path
         id="path1753"
         style="font-style:normal;font-variant:normal;font-weight:bold;font-stretch:normal;font-size:11.2889px;line-height:1.25;font-family:Montserrat;-inkscape-font-specification:'Montserrat Bold';fill:#000000;fill-opacity:1;stroke:none;stroke-width:0.248036"
         d="m 59.034842,213.5979 c -2.33882,0 -4.05336,1.62976 -4.05336,3.831 0,2.20124 1.71454,3.83099 4.05336,3.83099 2.32823,0 4.05335,-1.61917 4.05335,-3.83099 0,-2.21183 -1.725121,-3.831 -4.05335,-3.831 z m 0,1.4606 c 1.322861,0 2.317581,0.96287 2.317581,2.3704 0,1.40751 -0.994731,2.37039 -2.317581,2.37039 -1.322869,0 -2.31759,-0.96288 -2.31759,-2.37039 0,-1.40753 0.994731,-2.3704 2.31759,-2.3704 z m -0.0126,1.43299 a 0.93746034,0.93746034 0 0 0 -0.92481,0.93741 0.93746034,0.93746034 0 0 0 0.93741,0.9374 0.93746034,0.93746034 0 0 0 0.9374,-0.9374 0.93746034,0.93746034 0 0 0 -0.9374,-0.93741 0.93746034,0.93746034 0 0 0 -0.0126,0 z" />
      <path
         id="path1755"
         style="font-style:normal;font-variant:normal;font-weight:bold;font-stretch:normal;font-size:11.2889px;line-height:1.25;font-family:Montserrat;-inkscape-font-specification:'Montserrat Bold';fill:#000000;fill-opacity:1;stroke:none;stroke-width:0.248036"
         d="m 92.459052,213.5979 c -2.33882,0 -4.05336,1.62976 -4.05336,3.831 0,2.20124 1.71454,3.83099 4.05336,3.83099 2.32823,0 4.05335,-1.61917 4.05335,-3.83099 0,-2.21183 -1.725121,-3.831 -4.05335,-3.831 z m 0,1.4606 c 1.322861,0 2.317581,0.96287 2.317581,2.3704 0,1.40751 -0.994731,2.37039 -2.317581,2.37039 -1.322869,0 -2.31759,-0.96288 -2.31759,-2.37039 0,-1.40753 0.994731,-2.3704 2.31759,-2.3704 z m -0.0126,1.43299 a 0.93746034,0.93746034 0 0 0 -0.92481,0.93741 0.93746034,0.93746034 0 0 0 0.93741,0.9374 0.93746034,0.93746034 0 0 0 0.9374,-0.9374 0.93746034,0.93746034 0 0 0 -0.9374,-0.93741 0.93746034,0.93746034 0 0 0 -0.0126,0 z" />
      <g
         id="g2005"
         transform="translate(-0.8720117,13.546847)">
        <path
           d="m 36.296535,197.53215 c 1.09855,0 1.6002,-0.5461 1.6002,-1.17475 0,-1.6129 -2.774949,-0.8255 -2.774949,-2.159 0,-0.48895 0.387349,-0.889 1.250949,-0.889 0.40005,0 0.8509,0.12065 1.2192,0.37465 l 0.12065,-0.26035 c -0.3429,-0.24765 -0.8509,-0.40005 -1.33985,-0.40005 -1.092199,0 -1.574799,0.55245 -1.574799,1.1811 0,1.6383 2.774949,0.8382 2.774949,2.1717 0,0.4826 -0.3937,0.86995 -1.2827,0.86995 -0.5969,0 -1.162049,-0.2413 -1.466849,-0.5588 l -0.14605,0.2413 c 0.32385,0.3556 0.958849,0.60325 1.619249,0.60325 z"
           style="font-style:normal;font-variant:normal;font-weight:300;font-stretch:normal;font-size:6.35px;line-height:1.25;font-family:Montserrat;-inkscape-font-specification:'Montserrat Light';fill:#000000;fill-opacity:1;stroke:none;stroke-width:0.264583"
           id="path1921" />
        <path
           d="m 39.786555,197.5004 h 0.32385 v -4.1529 h 1.6002 v -0.2921 h -3.52425 v 0.2921 h 1.6002 z"
           style="font-style:normal;font-variant:normal;font-weight:300;font-stretch:normal;font-size:6.35px;line-height:1.25;font-family:Montserrat;-inkscape-font-specification:'Montserrat Light';fill:#000000;fill-opacity:1;stroke:none;stroke-width:0.264583"
           id="path1923" />
        <path
           d="m 45.605338,197.5004 h 0.34925 l -2.0447,-4.445 h -0.32385 l -2.0447,4.445 h 0.34925 l 0.56515,-1.25095 h 2.5781 z m -3.0226,-1.524 1.16205,-2.5654 1.1684,2.5654 z"
           style="font-style:normal;font-variant:normal;font-weight:300;font-stretch:normal;font-size:6.35px;line-height:1.25;font-family:Montserrat;-inkscape-font-specification:'Montserrat Light';fill:#000000;fill-opacity:1;stroke:none;stroke-width:0.264583"
           id="path1925" />
        <path
           d="m 49.874522,196.8273 c -0.36195,0.2921 -0.79375,0.4064 -1.26365,0.4064 -1.1557,0 -2.01295,-0.84455 -2.01295,-1.9558 0,-1.1176 0.85725,-1.9558 2.01295,-1.9558 0.53975,0 1.0033,0.14605 1.39065,0.52705 l 0.2032,-0.2159 c -0.3937,-0.4064 -0.95885,-0.6096 -1.6002,-0.6096 -1.3462,0 -2.33045,0.95885 -2.33045,2.25425 0,1.2954 0.98425,2.25425 2.3241,2.25425 0.6096,0 1.18745,-0.1905 1.5875,-0.5715 v -1.6637 h -0.31115 z"
           style="font-style:normal;font-variant:normal;font-weight:300;font-stretch:normal;font-size:6.35px;line-height:1.25;font-family:Montserrat;-inkscape-font-specification:'Montserrat Light';fill:#000000;fill-opacity:1;stroke:none;stroke-width:0.264583"
           id="path1927" />
        <path
           d="m 51.934699,197.2083 v -1.82245 h 2.36855 v -0.28575 h -2.36855 v -1.7526 h 2.64795 v -0.2921 h -2.9718 v 4.445 h 3.06705 v -0.2921 z"
           style="font-style:normal;font-variant:normal;font-weight:300;font-stretch:normal;font-size:6.35px;line-height:1.25;font-family:Montserrat;-inkscape-font-specification:'Montserrat Light';fill:#000000;fill-opacity:1;stroke:none;stroke-width:0.264583"
           id="path1929" />
        <path
           id="path1988"
           style="fill:#000000;stroke-width:0.460253"
           d="m 72.88995,193.27778 a 2,2 0 0 0 -1.978173,1.99988 2,2 0 0 0 2.000396,2.0004 2,2 0 0 0 1.999876,-2.0004 2,2 0 0 0 -1.999876,-1.99988 2,2 0 0 0 -0.02223,0 z m 0.02222,1.50017 a 0.5,0.5 0 0 1 0.499711,0.49971 0.5,0.5 0 0 1 -0.499711,0.50023 0.5,0.5 0 0 1 -0.500229,-0.50023 0.5,0.5 0 0 1 0.500229,-0.49971 z" />
        <circle
           style="fill:#000000;stroke-width:0.460253"
           id="circle1990"
           cx="59.323734"
           cy="195.27789"
           r="2" />
        <circle
           style="fill:#000000;stroke-width:0.460253"
           id="circle1992"
           cx="63.853035"
           cy="195.27789"
           r="2" />
        <circle
           style="fill:#000000;stroke-width:0.460253"
           id="circle1994"
           cx="68.382477"
           cy="195.27789"
           r="2" />
      </g>
    </g>
    <g
       id="g1084"
       transform="translate(9.7010047,-9.7727483)"
       inkscape:export-xdpi="300"
       inkscape:export-ydpi="300">
      <path
         d="m 30.82035,131.21219 h 1.714495 v -7.40831 H 30.82035 Z"
         style="font-style:normal;font-variant:normal;font-weight:bold;font-stretch:normal;font-size:10.5833px;line-height:1.25;font-family:Montserrat;-inkscape-font-specification:'Montserrat Bold';fill:#000000;fill-opacity:1;stroke:none;stroke-width:0.264583"
         id="path1562" />
      <path
         d="m 39.394146,123.80388 v 4.4979 l -3.682988,-4.4979 h -1.418162 v 7.40831 h 1.693328 v -4.4979 l 3.693571,4.4979 h 1.407579 v -7.40831 z"
         style="font-style:normal;font-variant:normal;font-weight:bold;font-stretch:normal;font-size:10.5833px;line-height:1.25;font-family:Montserrat;-inkscape-font-specification:'Montserrat Bold';fill:#000000;fill-opacity:1;stroke:none;stroke-width:0.264583"
         id="path1564" />
      <path
         d="m 44.385164,131.21219 h 1.714495 v -6.01131 h 2.370659 v -1.397 h -6.455813 v 1.397 h 2.370659 z"
         style="font-style:normal;font-variant:normal;font-weight:bold;font-stretch:normal;font-size:10.5833px;line-height:1.25;font-family:Montserrat;-inkscape-font-specification:'Montserrat Bold';fill:#000000;fill-opacity:1;stroke:none;stroke-width:0.264583"
         id="path1566" />
      <path
         d="m 66.084236,131.21219 h 3.365489 c 2.423576,0 4.085154,-1.4605 4.085154,-3.70415 0,-2.24366 -1.661578,-3.70416 -4.085154,-3.70416 h -3.365489 z m 1.714494,-1.40758 v -4.59315 h 1.566329 c 1.471078,0 2.434159,0.87841 2.434159,2.29658 0,1.41815 -0.963081,2.29657 -2.434159,2.29657 z"
         style="font-style:normal;font-variant:normal;font-weight:bold;font-stretch:normal;font-size:10.5833px;line-height:1.25;font-family:Montserrat;-inkscape-font-specification:'Montserrat Bold';fill:#000000;fill-opacity:1;stroke:none;stroke-width:0.264583"
         id="path1572" />
      <path
         d="m 78.119264,131.33919 c 2.106076,0 3.354906,-1.2065 3.354906,-3.38666 v -4.14865 h -1.693328 v 4.08516 c 0,1.40757 -0.603248,1.98965 -1.650995,1.98965 -1.037163,0 -1.650995,-0.58208 -1.650995,-1.98965 v -4.08516 h -1.714494 v 4.14865 c 0,2.18016 1.248829,3.38666 3.354906,3.38666 z"
         style="font-style:normal;font-variant:normal;font-weight:bold;font-stretch:normal;font-size:10.5833px;line-height:1.25;font-family:Montserrat;-inkscape-font-specification:'Montserrat Bold';fill:#000000;fill-opacity:1;stroke:none;stroke-width:0.264583"
         id="path1574" />
      <path
         d="m 92.36141,131.21219 h 1.714494 v -6.01131 h 2.370661 v -1.397 h -6.455814 v 1.397 h 2.370659 z"
         style="font-style:normal;font-variant:normal;font-weight:bold;font-stretch:normal;font-size:10.5833px;line-height:1.25;font-family:Montserrat;-inkscape-font-specification:'Montserrat Bold';fill:#000000;fill-opacity:1;stroke:none;stroke-width:0.264583"
         id="path1578" />
      <path
         d="m 97.358715,131.21219 h 1.71449 v -7.40831 h -1.71449 z"
         style="font-style:normal;font-variant:normal;font-weight:bold;font-stretch:normal;font-size:10.5833px;line-height:1.25;font-family:Montserrat;-inkscape-font-specification:'Montserrat Bold';fill:#000000;fill-opacity:1;stroke:none;stroke-width:0.264583"
         id="path1580" />
      <path
         d="m 114.86216,123.80388 v 4.4979 l -3.68299,-4.4979 h -1.41816 v 7.40831 h 1.69333 v -4.4979 l 3.69357,4.4979 h 1.40758 v -7.40831 z"
         style="font-style:normal;font-variant:normal;font-weight:bold;font-stretch:normal;font-size:10.5833px;line-height:1.25;font-family:Montserrat;-inkscape-font-specification:'Montserrat Bold';fill:#000000;fill-opacity:1;stroke:none;stroke-width:0.264583"
         id="path1584" />
      <path
         id="path1711"
         style="font-style:normal;font-variant:normal;font-weight:bold;font-stretch:normal;font-size:11.2889px;line-height:1.25;font-family:Montserrat;-inkscape-font-specification:'Montserrat Bold';fill:#000000;fill-opacity:1;stroke:none;stroke-width:0.248036"
         d="m 49.382663,123.80397 2.53511,3.97924 h -0.10223 -0.71843 -1.71445 v 3.42891 h 1.71445 v -2.06375 h 1.49209 0.0847 l 0.10125,-0.0199 1.32738,2.0836 h 1.84138 l -1.55023,-2.4329 c 0.8941,-0.42681 1.41265,-1.21984 1.41265,-2.28705 0,-1.66151 -1.2382,-2.68819 -3.21721,-2.68819 h -1.36518 z m 2.7313,1.39715 h 0.38029 c 1.04771,0 1.57688,0.47617 1.57688,1.29104 0,0.44618 -0.16348,0.79404 -0.48736,1.01589 z" />
      <path
         id="path1745"
         style="font-style:normal;font-variant:normal;font-weight:bold;font-stretch:normal;font-size:11.2889px;line-height:1.25;font-family:Montserrat;-inkscape-font-specification:'Montserrat Bold';fill:#000000;fill-opacity:1;stroke:none;stroke-width:0.248036"
         d="m 60.742314,123.67704 c -2.33882,0 -4.05336,1.62976 -4.05336,3.831 0,2.20124 1.71454,3.83099 4.05336,3.83099 2.328239,0 4.053359,-1.61917 4.053359,-3.83099 0,-2.21183 -1.72512,-3.831 -4.053359,-3.831 z m 0,1.46061 c 1.32286,0 2.317589,0.96286 2.317589,2.37039 0,1.40751 -0.99473,2.37039 -2.317589,2.37039 -1.322861,0 -2.31759,-0.96288 -2.31759,-2.37039 0,-1.40753 0.99473,-2.37039 2.31759,-2.37039 z m -0.0126,1.43299 a 0.93746034,0.93746034 0 0 0 -0.924809,0.9374 0.93746034,0.93746034 0 0 0 0.93741,0.9374 0.93746034,0.93746034 0 0 0 0.937399,-0.9374 0.93746034,0.93746034 0 0 0 -0.937399,-0.9374 0.93746034,0.93746034 0 0 0 -0.0126,0 z" />
      <path
         id="path1747"
         style="font-style:normal;font-variant:normal;font-weight:bold;font-stretch:normal;font-size:11.2889px;line-height:1.25;font-family:Montserrat;-inkscape-font-specification:'Montserrat Bold';fill:#000000;fill-opacity:1;stroke:none;stroke-width:0.248036"
         d="m 104.4191,123.67704 c -2.33882,0 -4.05336,1.62976 -4.05336,3.831 0,2.20124 1.71454,3.83099 4.05336,3.83099 2.32823,0 4.05335,-1.61917 4.05335,-3.83099 0,-2.21183 -1.72512,-3.831 -4.05335,-3.831 z m 0,1.46061 c 1.32286,0 2.31758,0.96286 2.31758,2.37039 0,1.40751 -0.99473,2.37039 -2.31758,2.37039 -1.32287,0 -2.31759,-0.96288 -2.31759,-2.37039 0,-1.40753 0.99473,-2.37039 2.31759,-2.37039 z m -0.0126,1.43299 a 0.93746034,0.93746034 0 0 0 -0.92481,0.9374 0.93746034,0.93746034 0 0 0 0.93741,0.9374 0.93746034,0.93746034 0 0 0 0.9374,-0.9374 0.93746034,0.93746034 0 0 0 -0.9374,-0.9374 0.93746034,0.93746034 0 0 0 -0.0126,0 z" />
      <path
         d="m 32.439602,121.15805 c 1.09855,0 1.6002,-0.5461 1.6002,-1.17475 0,-1.6129 -2.77495,-0.8255 -2.77495,-2.159 0,-0.48895 0.38735,-0.889 1.25095,-0.889 0.40005,0 0.8509,0.12065 1.2192,0.37465 l 0.12065,-0.26035 c -0.3429,-0.24765 -0.8509,-0.40005 -1.33985,-0.40005 -1.0922,0 -1.5748,0.55245 -1.5748,1.1811 0,1.6383 2.77495,0.8382 2.77495,2.1717 0,0.4826 -0.3937,0.86995 -1.2827,0.86995 -0.5969,0 -1.16205,-0.2413 -1.46685,-0.5588 l -0.14605,0.2413 c 0.32385,0.3556 0.95885,0.60325 1.61925,0.60325 z"
         style="font-style:normal;font-variant:normal;font-weight:300;font-stretch:normal;font-size:6.35px;line-height:1.25;font-family:Montserrat;-inkscape-font-specification:'Montserrat Light';fill:#000000;fill-opacity:1;stroke:none;stroke-width:0.264583"
         id="path1888" />
      <path
         d="m 35.929621,121.1263 h 0.32385 v -4.1529 h 1.6002 v -0.2921 h -3.52425 v 0.2921 h 1.6002 z"
         style="font-style:normal;font-variant:normal;font-weight:300;font-stretch:normal;font-size:6.35px;line-height:1.25;font-family:Montserrat;-inkscape-font-specification:'Montserrat Light';fill:#000000;fill-opacity:1;stroke:none;stroke-width:0.264583"
         id="path1890" />
      <path
         d="m 41.748404,121.1263 h 0.34925 l -2.0447,-4.445 h -0.32385 l -2.0447,4.445 h 0.34925 l 0.56515,-1.25095 h 2.5781 z m -3.0226,-1.524 1.16205,-2.5654 1.1684,2.5654 z"
         style="font-style:normal;font-variant:normal;font-weight:300;font-stretch:normal;font-size:6.35px;line-height:1.25;font-family:Montserrat;-inkscape-font-specification:'Montserrat Light';fill:#000000;fill-opacity:1;stroke:none;stroke-width:0.264583"
         id="path1892" />
      <path
         d="m 46.017588,120.4532 c -0.36195,0.2921 -0.79375,0.4064 -1.26365,0.4064 -1.1557,0 -2.01295,-0.84455 -2.01295,-1.9558 0,-1.1176 0.85725,-1.9558 2.01295,-1.9558 0.53975,0 1.0033,0.14605 1.39065,0.52705 l 0.2032,-0.2159 c -0.3937,-0.4064 -0.95885,-0.6096 -1.6002,-0.6096 -1.3462,0 -2.33045,0.95885 -2.33045,2.25425 0,1.2954 0.98425,2.25425 2.3241,2.25425 0.6096,0 1.18745,-0.1905 1.5875,-0.5715 v -1.6637 h -0.31115 z"
         style="font-style:normal;font-variant:normal;font-weight:300;font-stretch:normal;font-size:6.35px;line-height:1.25;font-family:Montserrat;-inkscape-font-specification:'Montserrat Light';fill:#000000;fill-opacity:1;stroke:none;stroke-width:0.264583"
         id="path1894" />
      <path
         d="m 48.077766,120.8342 v -1.82245 h 2.36855 V 118.726 h -2.36855 v -1.7526 h 2.64795 v -0.2921 h -2.9718 v 4.445 h 3.06705 v -0.2921 z"
         style="font-style:normal;font-variant:normal;font-weight:300;font-stretch:normal;font-size:6.35px;line-height:1.25;font-family:Montserrat;-inkscape-font-specification:'Montserrat Light';fill:#000000;fill-opacity:1;stroke:none;stroke-width:0.264583"
         id="path1896" />
      <path
         id="circle1824"
         style="fill:#000000;stroke-width:0.460253"
         d="m 64.503578,116.90394 a 2,2 0 0 0 -1.978173,1.99987 2,2 0 0 0 1.999877,1.99988 2,2 0 0 0 2.000395,-1.99988 2,2 0 0 0 -2.000395,-1.99987 2,2 0 0 0 -0.0217,0 z m 0.0217,0.49971 a 1.5,1.5 0 0 1 1.500169,1.50016 1.5,1.5 0 0 1 -1.500169,1.50017 1.5,1.5 0 0 1 -1.49965,-1.50017 1.5,1.5 0 0 1 1.49965,-1.50016 z" />
      <path
         id="path1834"
         style="fill:#000000;stroke-width:0.460253"
         d="m 69.033017,116.90394 a 2,2 0 0 0 -1.978173,1.99987 2,2 0 0 0 1.999877,1.99988 2,2 0 0 0 2.000395,-1.99988 2,2 0 0 0 -2.000395,-1.99987 2,2 0 0 0 -0.0217,0 z m 0.0217,0.49971 a 1.5,1.5 0 0 1 1.500169,1.50016 1.5,1.5 0 0 1 -1.500169,1.50017 1.5,1.5 0 0 1 -1.49965,-1.50017 1.5,1.5 0 0 1 1.49965,-1.50016 z" />
      <path
         id="path1952"
         style="fill:#000000;stroke-width:0.460253"
         d="m 55.444838,116.90368 a 2,2 0 0 0 -1.978173,1.99987 2,2 0 0 0 2.000396,2.0004 2,2 0 0 0 1.999876,-2.0004 2,2 0 0 0 -1.999876,-1.99987 2,2 0 0 0 -0.02223,0 z m 0.02222,1.50016 a 0.5,0.5 0 0 1 0.499711,0.49971 0.5,0.5 0 0 1 -0.499711,0.50023 0.5,0.5 0 0 1 -0.500229,-0.50023 0.5,0.5 0 0 1 0.500229,-0.49971 z" />
      <path
         id="path1954"
         style="fill:#000000;stroke-width:0.460253"
         d="m 59.974139,116.90394 a 2,2 0 0 0 -1.978173,1.99987 2,2 0 0 0 1.999877,1.99988 2,2 0 0 0 2.000395,-1.99988 2,2 0 0 0 -2.000395,-1.99987 2,2 0 0 0 -0.0217,0 z m 0.0217,0.49971 a 1.5,1.5 0 0 1 1.500169,1.50016 1.5,1.5 0 0 1 -1.500169,1.50017 1.5,1.5 0 0 1 -1.49965,-1.50017 1.5,1.5 0 0 1 1.49965,-1.50016 z" />
      <path
         id="path1015"
         style="font-style:normal;font-variant:normal;font-weight:bold;font-stretch:normal;font-size:10.5833px;line-height:1.25;font-family:Montserrat;-inkscape-font-specification:'Montserrat Bold';fill:#000000;fill-opacity:1;stroke:none;stroke-width:0.264583"
         d="m 86.714023,123.67674 c -2.307159,0 -4.02146,1.59821 -4.02146,3.8313 0,2.23307 1.714547,3.83129 4.011123,3.83129 1.291164,0 2.359715,-0.46567 3.058212,-1.32292 l -1.100193,-1.01596 c -0.497414,0.58208 -1.122103,0.87798 -1.862934,0.87798 -1.386414,0 -2.370399,-0.97341 -2.370399,-2.37039 0,-1.397 0.983985,-2.37092 2.370399,-2.37092 0.740831,0 1.36552,0.29666 1.862934,0.86816 l 1.100193,-1.01595 c -0.698497,-0.84666 -1.767297,-1.31259 -3.047875,-1.31259 z m 0.01913,2.89388 a 0.93746033,0.93746033 0 0 0 -0.924491,0.93742 0.93746033,0.93746033 0 0 0 0.937411,0.93741 0.93746033,0.93746033 0 0 0 0.937411,-0.93741 0.93746033,0.93746033 0 0 0 -0.937411,-0.93742 0.93746033,0.93746033 0 0 0 -0.01291,0 z" />
    </g>
    <rect
       style="fill:#000000;stroke-width:0.434013;stroke-miterlimit:4;stroke-dasharray:none"
       id="rect1158"
       width="10"
       height="30"
       x="20.521355"
       y="91.566582" />
    <rect
       style="fill:#000000;stroke-width:0.434013;stroke-miterlimit:4;stroke-dasharray:none"
       id="rect1160"
       width="10"
       height="30"
       x="20.521355"
       y="131.56659" />
    <rect
       style="fill:#000000;stroke-width:0.434013;stroke-miterlimit:4;stroke-dasharray:none"
       id="rect1162"
       width="10"
       height="30"
       x="20.521355"
       y="171.56659" />
    <rect
       style="fill:#000000;stroke-width:0.434013;stroke-miterlimit:4;stroke-dasharray:none"
       id="rect1166"
       width="10"
       height="30"
       x="20.521355"
       y="211.56659" />
    <rect
       style="fill:#000000;stroke-width:0.434013;stroke-miterlimit:4;stroke-dasharray:none"
       id="rect1168"
       width="10"
       height="30"
       x="20.521355"
       y="251.56659" />
  </g>
</svg>
